<svg xmlns="http://www.w3.org/2000/svg" width="37.656" height="38.06" viewBox="0 0 37.656 38.06">
  <defs>
    <style>
      .cls-1 {
        fill: #80407a;
        fill-rule: evenodd;
      }
    </style>
  </defs>
  <path id="Dashboard" class="cls-1" d="M671.511,3883.25a19.026,19.026,0,1,0,18.839,19.03A18.958,18.958,0,0,0,671.511,3883.25Zm12.886,29.38a1.127,1.127,0,0,0-.278-0.49l-1.059-1.07a1.165,1.165,0,0,0-1.665,0,1.2,1.2,0,0,0,0,1.68l1.059,1.07a1.1,1.1,0,0,0,.617.31,16.318,16.318,0,0,1-23.1.02,1.18,1.18,0,0,0,.715-0.33l1.059-1.07a1.176,1.176,0,0,0,.345-0.84,1.193,1.193,0,0,0-.345-0.84,1.177,1.177,0,0,0-1.665,0l-1.059,1.07a1.154,1.154,0,0,0-.3.62,16.68,16.68,0,0,1-3.634-9.29h2.295a1.19,1.19,0,0,0,0-2.38h-2.295a16.641,16.641,0,0,1,3.981-9.7l1.014,1.03a1.189,1.189,0,0,0,1.665,0,1.207,1.207,0,0,0,0-1.69l-1.014-1.02a16.293,16.293,0,0,1,9.6-4.02v2.32a1.178,1.178,0,1,0,2.355,0v-2.32a16.565,16.565,0,0,1,15.247,15.4h-2.3a1.19,1.19,0,0,0,0,2.38h2.3A16.623,16.623,0,0,1,684.4,3912.63Zm-5.548-19.44-5.828,7.06a3.483,3.483,0,0,0-1.51-.35,3.6,3.6,0,1,0,3.169,2.02c0.028-.03.066-0.04,0.091-0.07l5.887-7.14a1.192,1.192,0,0,0-.15-1.67A1.174,1.174,0,0,0,678.849,3893.19Zm-6.16,11.47h-2.355v-2.38h2.355v2.38Z" transform="translate(-652.688 -3883.25)"/>
</svg>
