<svg xmlns="http://www.w3.org/2000/svg" width="37.66" height="29.72" viewBox="0 0 37.66 29.72">
  <defs>
    <style>
      .cls-1 {
        fill: #80407a;
        fill-rule: evenodd;
      }
    </style>
  </defs>
  <path id="Menu" class="cls-1" d="M1167.42,3883H1136.8a3.557,3.557,0,0,0-3.53,3.57v1.19a3.555,3.555,0,0,0,3.53,3.56h30.62a3.555,3.555,0,0,0,3.53-3.56v-1.19A3.557,3.557,0,0,0,1167.42,3883Zm1.17,4.76a1.182,1.182,0,0,1-1.17,1.19H1136.8a1.182,1.182,0,0,1-1.17-1.19v-1.19a1.176,1.176,0,0,1,1.17-1.19h30.62a1.176,1.176,0,0,1,1.17,1.19v1.19Zm-7.06,16.65H1136.8a3.555,3.555,0,0,0-3.53,3.56v1.19a3.557,3.557,0,0,0,3.53,3.57h24.73a3.551,3.551,0,0,0,3.53-3.57v-1.19A3.549,3.549,0,0,0,1161.53,3904.41Zm1.18,4.75a1.184,1.184,0,0,1-1.18,1.19H1136.8a1.176,1.176,0,0,1-1.17-1.19v-1.19a1.182,1.182,0,0,1,1.17-1.19h24.73a1.191,1.191,0,0,1,1.18,1.19v1.19Zm-25.91-7.13h17.66a3.559,3.559,0,0,0,3.54-3.57v-1.19a3.559,3.559,0,0,0-3.54-3.57H1136.8a3.557,3.557,0,0,0-3.53,3.57v1.19A3.557,3.557,0,0,0,1136.8,3902.03Zm-1.17-4.76a1.176,1.176,0,0,1,1.17-1.19h17.66a1.184,1.184,0,0,1,1.18,1.19v1.19a1.191,1.191,0,0,1-1.18,1.19H1136.8a1.182,1.182,0,0,1-1.17-1.19v-1.19Z" transform="translate(-1133.28 -3883)"/>
</svg>
