<svg xmlns="http://www.w3.org/2000/svg" width="37" height="37.06" viewBox="0 0 37 37.06">
  <defs>
    <style>
      .cls-1 {
        fill: #80407a;
        fill-rule: evenodd;
      }
    </style>
  </defs>
  <path id="Stats" class="cls-1" d="M926.193,3883.25H898.429a4.636,4.636,0,0,0-4.628,4.63v27.79a4.63,4.63,0,0,0,4.628,4.63h27.764a4.63,4.63,0,0,0,4.628-4.63v-27.79A4.636,4.636,0,0,0,926.193,3883.25Zm2.314,32.42a2.319,2.319,0,0,1-2.314,2.32H898.429a2.319,2.319,0,0,1-2.314-2.32v-27.79a2.317,2.317,0,0,1,2.314-2.31h27.764a2.317,2.317,0,0,1,2.314,2.31v27.79Zm-24.294-19.68a1.159,1.159,0,0,0-1.157,1.16v13.89a1.157,1.157,0,1,0,2.314,0v-13.89A1.159,1.159,0,0,0,904.213,3895.99Zm16.2,4.63a1.159,1.159,0,0,0-1.157,1.16v9.26a1.157,1.157,0,1,0,2.314,0v-9.26A1.159,1.159,0,0,0,920.409,3900.62Zm-8.1-9.26a1.15,1.15,0,0,0-1.157,1.15v18.53a1.157,1.157,0,1,0,2.314,0v-18.53A1.15,1.15,0,0,0,912.311,3891.36Z" transform="translate(-893.812 -3883.25)"/>
</svg>
