<?xml version="1.0" encoding="utf-8"?>
<!-- Generator: Adobe Illustrator 25.2.1, SVG Export Plug-In . SVG Version: 6.00 Build 0)  -->
<svg version="1.1" id="Слой_1" xmlns="http://www.w3.org/2000/svg" xmlns:xlink="http://www.w3.org/1999/xlink" x="0px" y="0px"
	 viewBox="0 0 35.3 38.1" style="enable-background:new 0 0 35.3 38.1;" xml:space="preserve">
<style type="text/css">
	.st0{fill-rule:evenodd;clip-rule:evenodd;fill:#80407A;}
</style>
<path id="Timer" class="st0" d="M31.5,7c0.1-0.1,0.2-0.3,0.3-0.4l1.6,1.6c0.5,0.5,1.2,0.5,1.7,0c0.5-0.5,0.5-1.2,0-1.7l-4.7-4.7
	c-0.4-0.5-1.2-0.5-1.6,0c0,0,0,0,0,0c-0.5,0.5-0.5,1.2,0,1.7l1.6,1.6c-0.2,0.1-0.3,0.1-0.4,0.3l-1.1,1.1c-2.8-2.2-6.2-3.6-9.7-3.8
	V1.4c0-0.6-0.5-1.2-1.2-1.2s-1.2,0.5-1.2,1.2v1.2c-9.7,0.6-17.1,9-16.5,18.7c0.6,9.7,9,17.1,18.7,16.5c9.7-0.6,17.1-9,16.5-18.7
	c-0.3-4.2-2-8.1-4.9-11.1L31.5,7z M17.8,35.7C9.3,35.8,2.4,29,2.3,20.5C2.2,12,9,5.1,17.5,5C26,4.9,32.9,11.7,33,20.2
	c0,0.1,0,0.1,0,0.2C33,28.8,26.2,35.6,17.8,35.7z M19,17V8.5c0-0.6-0.5-1.2-1.2-1.2s-1.2,0.5-1.2,1.2V17c-1.8,0.6-2.8,2.6-2.1,4.5
	c0.6,1.8,2.6,2.8,4.5,2.1c1.8-0.6,2.8-2.6,2.1-4.5C20.7,18.2,20,17.4,19,17L19,17z M19,21.5h-2.3v-2.4H19V21.5z"/>
</svg>
