<svg width="240" height="64" viewBox="0 0 240 64" fill="none" xmlns="http://www.w3.org/2000/svg">
<g id="Frame" clip-path="url(#clip0_9_2)">
<g id="Group">
<g id="Group_2">
<g id="Group_3">
<g id="Group_4">
<path id="Vector" d="M218.143 6.27891L218.2 10.2208C218.2 10.2208 225.314 19.231 227.343 22.4127C228.771 24.6089 230.343 27.0303 231.543 29.1984C232.714 31.3101 233.229 32.6054 233.743 33.8442C234.371 35.3084 235.086 38.1804 235.086 40.1232C235.086 43.2204 234.543 44.9943 234.171 46.0924C233.629 47.7255 232.543 50.1188 231.286 51.6111C230.629 52.3995 229.943 53.1034 228.657 54.2296C229.4 54.652 232.514 50.4003 232.514 50.4003L237.057 43.2767L234.914 32.2956L218.029 5.15265L218.143 6.27891Z" fill="url(#paint0_radial_9_2)"/>
<path id="Vector_2" d="M218.171 5.85657C218.171 5.85657 218.229 9.01011 218.229 10.2208C216.8 12.6142 212.514 18.8368 211.029 21.4553C208.857 25.2846 207.114 28.5508 206.543 33.2811C206.171 36.2939 206.486 39.0532 208.343 41.5592C209.6 43.2486 210.943 44.4593 213.286 45.2758C215.714 46.1487 218.257 46.1487 219.571 45.839C219.743 45.8108 219.286 46.0079 218.914 46.0924C216.629 46.6274 213.543 46.3739 210.6 44.6845C207.343 42.8262 205.486 38.2648 205.4 35.421C205.314 32.549 207.4 25.9322 207.4 25.9322C207.4 25.9322 211.229 17.9358 212.571 15.2327C213.914 12.5015 218.171 5.85657 218.171 5.85657Z" fill="url(#paint1_radial_9_2)"/>
<path id="Vector_3" d="M218.229 0.0281522C218.143 -0.0563176 218.057 -4.38374e-06 217.971 0.140779C217.971 0.140779 213.229 8.16542 211.8 10.6995C209.371 15.0919 206.657 20.2728 204.343 26.5517C203.571 28.6634 202.914 32.2112 202.714 34.6889C202.514 37.026 203.2 39.9261 203.771 41.5029C204.886 44.4311 206.457 45.8953 208.286 47.275C211.629 48.4294 217.4 46.8526 220.143 45.5574C215.514 47.0779 211.171 45.4729 208.686 42.5728C206.429 39.9542 205.829 37.8425 205.914 34.2103C206 30.747 207.6 26.7488 207.829 26.0449C209.429 21.4835 211.771 17.4289 213.257 14.4725C213.714 13.5715 214.6 12.0229 215.457 10.5306C216.371 8.9538 217.314 7.43334 217.743 6.70127C217.914 6.4197 218 6.27892 218 6.27892C218.029 6.22261 218.086 6.19445 218.114 6.19445C218.143 5.60316 218.543 4.58952 218.571 3.66036C218.714 2.28068 218.286 0.901007 218.229 0.0281522Z" fill="url(#paint2_radial_9_2)"/>
<path id="Vector_4" d="M229.057 53.8355C226.771 55.4122 222 57.7774 216.771 57.1016C210.086 56.2569 206.029 52.5684 203.543 48.6546C202 46.2613 200.143 40.799 201.971 34.6608C203.514 29.5363 208.743 25.6507 214.114 25.3691C218.943 25.1157 222.143 27.1711 224.029 29.1421C224.943 30.0713 226.886 32.718 226.771 36.2094C226.686 38.9406 225.771 40.9116 223.571 43.2204C222.029 44.8535 219.171 46.0079 219.171 46.0079L219.486 47.6692L224.029 44.8535L227.657 39.3348L228.229 34.9705L226.743 29.8179C226.143 29.3392 220.343 24.3555 214.714 24.8905C206.914 25.5944 203 30.6344 202.086 32.9714C201.571 33.6472 201.114 34.0132 201.114 34.0132C201.114 34.0132 199.486 36.1813 199.657 40.6863C199.857 45.1914 202.171 55.9754 207.971 57.9182C213.743 59.8328 216.314 59.5513 218.914 59.6639C221.514 59.7484 226.486 57.9745 228.114 56.7074C229.714 55.4404 229.686 53.4131 229.057 53.8355Z" fill="url(#paint3_radial_9_2)"/>
<path id="Vector_5" d="M221.086 45.1069C218.171 46.5147 212.743 48.4012 208.286 47.2749C211.943 49.5275 214.629 49.9217 217.029 49.8372C219.6 49.7809 221.2 49.2178 222.971 48.3449C227.457 46.1487 229.543 41.6718 229.857 38.0114C230.314 32.7461 227.8 28.6071 224.171 25.8478C220.514 23.0884 216.714 22.8632 214.314 22.835C211.143 22.7787 206.771 24.2428 203.486 27.2274C199.771 30.4936 196.314 36.9415 196.429 44.1214C196.543 50.5693 200.714 57.2706 207.029 60.9872C213.914 62.4795 221.457 59.2415 227 55.1588C224.429 56.6229 221.343 57.4395 218.143 57.4676C208.371 57.5521 200.6 49.4712 200.571 40.4329C200.571 39.5037 200.629 36.8007 201.486 34.4074C202.771 30.5499 207 25.7633 213.686 25.0875C217.971 24.6652 222.571 26.4672 225.057 29.9868C227.086 32.8024 227.029 35.4492 226.943 36.6881C226.829 38.0959 226.4 39.7571 225.2 41.531C223.943 43.502 222.143 44.6282 221.086 45.1069Z" fill="url(#paint4_radial_9_2)"/>
<path id="Vector_6" d="M238.171 34.154C234.143 24.4963 226.057 12.8676 218.343 0.197103C218.286 0.0563196 218.2 0.0563196 218.143 0.0844762C217.457 1.52046 218.171 4.73032 218.114 6.19446C218.2 6.16631 218.257 6.19446 218.314 6.27893C224.457 15.5706 231 25.3973 234.229 33.1967C235.114 35.3366 235.771 37.9551 235.714 40.4048C235.514 47.5847 231.543 52.3713 227.2 55.187C221.771 58.9881 214.343 62.1698 207.086 61.0154C210.314 62.9301 214.171 64 218.257 64C230.257 64 240 54.4549 240 42.7136C240 39.6727 239.257 36.8007 238.171 34.154Z" fill="url(#paint5_radial_9_2)"/>
</g>
</g>
</g>
<g id="Group_5">
<path id="Vector_7" d="M151.514 63.6621H150.857V53.1879H152.229L155.714 61.7193L159.229 53.1879H160.543V63.6621H159.4V54.286L155.429 64L151.514 54.4268V63.6621Z" fill="#E25B00"/>
<path id="Vector_8" d="M167.857 63.6621V53.6947L166.857 53.8073V53.3568L168.971 53.1034V63.6903H167.857V63.6621Z" fill="#E25B00"/>
<path id="Vector_9" d="M179.943 63.6621V60.3397H175L180.029 53.1879H181.057V59.8328H182.543V60.3397H181.057V63.6621H179.943ZM179.943 59.8047V54.117L175.971 59.8047H179.943Z" fill="#E25B00"/>
</g>
<path id="Vector_10" d="M122.086 44.6282V46.1205H108.143V23.1729H121.943V24.6652H112.571V33.5064H116.943V34.9987H112.571V44.6282H122.086ZM4 43.6709C6.4 45.6419 9.45714 46.6274 12.8286 46.6274C16.2571 46.6274 19.3429 45.6137 21.7714 43.6146C24.4 41.4184 25.7143 38.5464 25.7143 34.9987C25.7143 31.2539 24.4286 28.1848 21.8571 25.8196C19.4286 23.5671 16.3143 22.4408 12.8 22.4408C9.31429 22.4408 6.17143 23.6234 3.71429 26.0167C1.22857 28.3819 0 31.3946 0 35.055C0 38.6027 1.34286 41.5029 4 43.6709ZM8.17143 28.7198C9.11429 26.3264 10.6571 25.1439 12.8 25.1439C14.4571 25.1439 15.7429 25.8759 16.7143 27.3401C17.8857 29.1139 18.4857 31.6762 18.4857 34.9987C18.4857 37.1949 18.1143 39.1096 17.4 40.7145C16.4571 42.7981 15 43.8399 13.0571 43.8399C11.0571 43.8399 9.54286 42.7981 8.45714 40.7426C7.62857 39.1377 7.22857 37.2512 7.22857 35.0268C7.2 32.4364 7.54286 30.3528 8.17143 28.7198ZM37 46.0924V23.2292H29.8V46.1205H37V46.0924ZM57.2571 46.0924V42.9952H48.7429V23.2292H41.3714V46.1205H57.2571V46.0924ZM87.7714 27.7906L101.971 46.1205H103.543V23.1447H102.057L102 38.9406L89.8 23.1447H85.8857V46.0924H87.7429L87.7714 27.7906ZM174.029 23.1447H168.886L176.829 35.1395V46.0924H181.2V34.4355L188.857 23.1447H186.6L180.229 32.5209L174.029 23.1447ZM137 35.3647C137.057 35.3647 137.114 35.3366 137.171 35.3366C138.8 35.1676 140.171 34.6045 141.2 33.5909C142 32.8306 142.571 31.9578 142.857 30.916C143 30.5218 143.086 30.0713 143.086 29.5926C143.086 29.5081 143.086 29.4518 143.086 29.3955C143.086 29.2547 143.086 29.1139 143.086 28.9732C143.086 28.6916 143.029 28.41 142.943 28.1285C142.686 26.8896 142.114 25.8196 141.2 24.9749C140.629 24.4399 140 24.0458 139.257 23.736C138.857 23.5389 138.4 23.4263 137.829 23.3137C137.686 23.2855 137.543 23.2574 137.4 23.2574C137.257 23.2292 137.114 23.2292 136.971 23.2011H136.914C136.657 23.1729 136.429 23.1729 136.171 23.1729H126.371V23.2292V35.3929V46.1205H130.771V24.6652H133.143C135.114 24.6652 136.571 25.172 137.514 26.1575C138.229 26.9177 138.6 27.9314 138.657 29.1984C138.629 30.5218 138.257 31.6199 137.486 32.4083C136.543 33.3938 135.086 33.9006 133.114 33.9006H131.686L132.514 35.3929L138.343 46.1205H143.171L137 35.3647ZM168.171 34.9142V33.5909H159.429V35.055H163.8V43.502C163.4 44.037 162.743 44.4593 161.829 44.7972C160.914 45.1351 159.943 45.2759 158.886 45.2759C156.257 45.2759 154.2 44.2341 152.714 42.1223C151.371 40.2077 150.714 37.758 150.714 34.7453C150.714 31.3665 151.457 28.7198 152.914 26.8333C154.371 24.9468 156.514 23.9894 159.314 23.9894C160.714 23.9894 162.029 24.4118 163.229 25.2846C164.086 25.8759 165.029 26.8614 166.057 28.1566L167.371 27.2556C166.343 25.7633 165.029 24.6089 163.457 23.7642C161.886 22.9195 160.2 22.4971 158.371 22.4971C154.857 22.4971 151.943 23.6516 149.6 25.9604C147.257 28.2692 146.057 31.2539 146.057 34.8861C146.057 38.1241 147.229 40.9116 149.543 43.2486C151.857 45.5856 154.657 46.74 157.914 46.74C161.8 46.74 165.229 45.5574 168.229 43.1923L168.171 34.9142ZM71.8286 44.6001V34.9705H76.2V33.4782H71.8286V24.6652H81.2286V23.1729H67.4286V46.1205H81.3714V44.6282H71.8286V44.6001Z" fill="black"/>
</g>
</g>
<defs>
<radialGradient id="paint0_radial_9_2" cx="0" cy="0" r="1" gradientUnits="userSpaceOnUse" gradientTransform="translate(225.543 38.5789) scale(17.5004 28.0566)">
<stop offset="0.1613" stop-color="#F8C954"/>
<stop offset="0.2289" stop-color="#F7C553"/>
<stop offset="0.2901" stop-color="#F3BA4E"/>
<stop offset="0.3489" stop-color="#ECA847"/>
<stop offset="0.4061" stop-color="#E28E3D"/>
<stop offset="0.4622" stop-color="#D56D31"/>
<stop offset="0.5174" stop-color="#C64421"/>
<stop offset="0.5711" stop-color="#B4140F"/>
<stop offset="0.5813" stop-color="#B00A0B"/>
<stop offset="0.7346" stop-color="#820D07"/>
<stop offset="0.9018" stop-color="#530808"/>
<stop offset="1" stop-color="#3C0508"/>
</radialGradient>
<radialGradient id="paint1_radial_9_2" cx="0" cy="0" r="1" gradientUnits="userSpaceOnUse" gradientTransform="translate(216.051 29.6856) scale(17.2237 28.2405)">
<stop offset="0.1273" stop-color="#F8C954"/>
<stop offset="0.1926" stop-color="#EBA647"/>
<stop offset="0.3363" stop-color="#CA4E25"/>
<stop offset="0.4424" stop-color="#B00A0B"/>
<stop offset="0.5198" stop-color="#A30A0B"/>
<stop offset="0.6634" stop-color="#80090A"/>
<stop offset="0.8558" stop-color="#490709"/>
<stop offset="1" stop-color="#1B0608"/>
</radialGradient>
<radialGradient id="paint2_radial_9_2" cx="0" cy="0" r="1" gradientUnits="userSpaceOnUse" gradientTransform="translate(210.378 39.207) scale(17.1176 25.1283)">
<stop stop-color="#F77A11"/>
<stop offset="0.0537869" stop-color="#F67310"/>
<stop offset="0.133" stop-color="#F25F0E"/>
<stop offset="0.2274" stop-color="#EB3F0B"/>
<stop offset="0.2909" stop-color="#E62509"/>
<stop offset="0.3382" stop-color="#C92008"/>
<stop offset="0.4331" stop-color="#941806"/>
<stop offset="0.5295" stop-color="#671104"/>
<stop offset="0.6254" stop-color="#420B03"/>
<stop offset="0.7206" stop-color="#250601"/>
<stop offset="0.8152" stop-color="#100301"/>
<stop offset="0.9087" stop-color="#040100"/>
<stop offset="1"/>
</radialGradient>
<radialGradient id="paint3_radial_9_2" cx="0" cy="0" r="1" gradientUnits="userSpaceOnUse" gradientTransform="translate(213.528 45.9358) rotate(35.5359) scale(17.7926 26.699)">
<stop stop-color="#F8C954"/>
<stop offset="0.2185" stop-color="#E79D43"/>
<stop offset="0.7105" stop-color="#BD2D18"/>
<stop offset="0.8606" stop-color="#B00A0B"/>
</radialGradient>
<radialGradient id="paint4_radial_9_2" cx="0" cy="0" r="1" gradientUnits="userSpaceOnUse" gradientTransform="translate(216.659 36.6002) rotate(-3.58262) scale(37.4068 34.1578)">
<stop offset="0.0861455" stop-color="#F7C44D"/>
<stop offset="0.2788" stop-color="#F98A1C"/>
<stop offset="0.3173" stop-color="#F7801A"/>
<stop offset="0.3826" stop-color="#F26515"/>
<stop offset="0.4661" stop-color="#EA3A0D"/>
<stop offset="0.503" stop-color="#E62509"/>
<stop offset="0.5911" stop-color="#B51D07"/>
<stop offset="0.7388" stop-color="#681104"/>
<stop offset="0.861" stop-color="#300802"/>
<stop offset="0.9514" stop-color="#0D0201"/>
<stop offset="1"/>
</radialGradient>
<radialGradient id="paint5_radial_9_2" cx="0" cy="0" r="1" gradientUnits="userSpaceOnUse" gradientTransform="translate(218.723 52.275) rotate(-69.8121) scale(45.1103 37.4964)">
<stop stop-color="#E62509"/>
<stop offset="0.0410129" stop-color="#C11F08"/>
<stop offset="0.1043" stop-color="#8E1706"/>
<stop offset="0.1688" stop-color="#631004"/>
<stop offset="0.2336" stop-color="#3F0A02"/>
<stop offset="0.2985" stop-color="#230601"/>
<stop offset="0.3638" stop-color="#100301"/>
<stop offset="0.4297" stop-color="#040100"/>
<stop offset="0.497"/>
</radialGradient>
<clipPath id="clip0_9_2">
<rect width="240" height="64" fill="white"/>
</clipPath>
</defs>
</svg>
