<svg width="132" height="150" viewBox="0 0 132 150" fill="none" xmlns="http://www.w3.org/2000/svg">
<g id="Frame" clip-path="url(#clip0_9_18)">
<g id="Group">
<g id="Group_2">
<g id="Group_3">
<path id="Vector" d="M55.4863 149.747H55.0295V142.378H55.9769L58.3959 148.378L60.8319 142.378H61.7454V149.747H60.9503V143.139L58.1929 150L55.4863 143.257V149.747Z" fill="#E25B00"/>
<path id="Vector_2" d="M66.8373 149.747V142.716L66.1437 142.801V142.463L67.6154 142.277V149.73H66.8373V149.747Z" fill="#E25B00"/>
<path id="Vector_3" d="M74.7881 149.747V147.414H71.354L74.8557 142.378H75.5662V147.043H76.6151V147.414H75.5662V149.747H74.7881ZM74.7881 147.043V143.054L72.0307 147.043H74.7881Z" fill="#E25B00"/>
</g>
</g>
<path id="Vector_4" d="M85.3272 136.818V137.883H75.5832V121.626H85.2257V122.69H78.6621V128.943H81.724V130.008H78.6621V136.835H85.3272V136.818ZM2.79123 136.142C4.46597 137.545 6.59746 138.238 8.96578 138.238C11.3679 138.238 13.5163 137.528 15.208 136.092C17.0519 134.537 17.9654 132.492 17.9654 129.974C17.9654 127.321 17.0688 125.141 15.2757 123.468C13.584 121.879 11.4018 121.085 8.94887 121.085C6.51288 121.085 4.33064 121.93 2.58824 123.603C0.862745 125.293 0 127.422 0 130.008C0 132.56 0.930411 134.605 2.79123 136.142ZM5.70088 125.546C6.36063 123.856 7.44329 123.012 8.93195 123.012C10.0823 123.012 10.9958 123.535 11.6724 124.566C12.5013 125.834 12.9073 127.642 12.9073 129.991C12.9073 131.546 12.6536 132.898 12.1461 134.03C11.4864 135.5 10.4714 136.244 9.11803 136.244C7.71396 136.244 6.64821 135.517 5.90388 134.047C5.32872 132.915 5.04114 131.563 5.04114 130.008C5.04114 128.183 5.26105 126.696 5.70088 125.546ZM25.8654 137.866V121.66H20.8243V137.866H25.8654ZM40.0246 137.866V135.669H34.0869V121.643H28.9443V137.849H40.0246V137.866ZM61.3564 124.887L71.2695 137.866H72.3522V121.609H71.3203L71.2695 132.796L62.7266 121.609H59.9862V137.866H61.2887L61.3564 124.887ZM121.647 121.609H118.044L123.592 130.109V138.407H126.654V129.619L132 121.609H130.427L125.961 128.25L121.647 121.609ZM95.7647 130.261C95.7985 130.261 95.8493 130.244 95.8831 130.244C97.0335 130.126 97.9639 129.721 98.7082 129.011C99.2664 128.47 99.6724 127.845 99.8754 127.118C99.9769 126.831 100.028 126.527 100.028 126.172C100.028 126.121 100.028 126.07 100.028 126.02C100.028 125.918 100.028 125.817 100.028 125.715C100.011 125.513 99.9769 125.31 99.9262 125.107C99.757 124.228 99.351 123.485 98.7082 122.859C98.3191 122.488 97.8624 122.2 97.3549 121.981C97.0673 121.845 96.7628 121.761 96.3568 121.693C96.2553 121.676 96.1707 121.66 96.0692 121.643C95.9677 121.626 95.8662 121.609 95.7647 121.609H95.7309C95.5617 121.592 95.3925 121.592 95.2065 121.592H88.3552V121.643V130.261V137.849H91.4341V122.64H93.0919C94.479 122.64 95.494 122.995 96.1538 123.704C96.6613 124.245 96.915 124.972 96.9658 125.851C96.9489 126.797 96.6782 127.557 96.1538 128.132C95.494 128.842 94.479 129.197 93.0919 129.197H92.0938L92.669 130.261L96.7459 137.849H100.129L95.7647 130.261ZM117.536 129.94V129.011H111.429V130.042H114.491V136.024C114.204 136.396 113.747 136.7 113.121 136.937C112.495 137.173 111.802 137.275 111.057 137.275C109.213 137.275 107.775 136.531 106.744 135.027C105.813 133.675 105.339 131.934 105.339 129.805C105.339 127.405 105.847 125.546 106.862 124.194C107.877 122.859 109.366 122.183 111.328 122.183C112.309 122.183 113.223 122.488 114.068 123.096C114.661 123.518 115.32 124.211 116.048 125.141L116.961 124.499C116.234 123.451 115.32 122.623 114.238 122.014C113.138 121.406 111.954 121.119 110.668 121.119C108.215 121.119 106.168 121.947 104.527 123.586C102.887 125.225 102.058 127.338 102.058 129.923C102.058 132.222 102.87 134.199 104.494 135.855C106.118 137.511 108.063 138.339 110.347 138.339C113.053 138.339 115.456 137.494 117.553 135.821L117.536 129.94ZM50.2084 136.802V129.974H53.2703V128.909H50.2084V122.657H56.772V121.592H47.1296V137.849H56.8735V136.785H50.2084V136.802Z" fill="black"/>
<g id="Group_4">
<g id="Group_5">
<g id="Group_6">
<path id="Vector_5" d="M66.0761 10.7988L66.1945 17.5417C66.1945 17.5417 78.2222 33.0048 81.6901 38.4633C84.0922 42.2319 86.7481 46.3892 88.795 50.0902C90.7912 53.7067 91.6539 55.9543 92.5167 58.0498C93.5655 60.5848 94.7835 65.4856 94.7835 68.8317C94.7835 74.172 93.8362 77.2139 93.2441 79.0559C92.3475 81.8612 90.4698 85.9678 88.3383 88.5365C87.2218 89.8885 86.0545 91.1222 83.8892 93.0487C85.158 93.7754 90.4359 86.4917 90.4359 86.4917L98.133 74.2565L94.5128 55.4304L65.9238 8.85538L66.0761 10.7988Z" fill="url(#paint0_radial_9_18)"/>
<path id="Vector_6" d="M66.11 10.0552C66.11 10.0552 66.2284 15.4631 66.2284 17.5417C63.7924 21.6483 56.5352 32.3288 54.0315 36.8072C50.3437 43.398 47.4002 48.9917 46.4191 57.0866C45.7931 62.2578 46.3345 67.0066 49.481 71.3159C51.5955 74.2058 53.8962 76.2675 57.8377 77.704C61.9654 79.208 66.2284 79.208 68.4952 78.6672C68.7828 78.5996 68.0046 78.9376 67.3787 79.0897C63.5048 80.0192 58.2776 79.546 53.3041 76.6562C47.8062 73.4622 44.6428 65.6208 44.4737 60.7538C44.3045 55.836 47.8401 44.4964 47.8401 44.4964C47.8401 44.4964 54.3191 30.7909 56.6028 26.1267C58.9204 21.4624 66.11 10.0552 66.11 10.0552Z" fill="url(#paint1_radial_9_18)"/>
<path id="Vector_7" d="M66.2284 0.0676247C66.093 -0.0506719 65.9239 2.66568e-05 65.8055 0.253519C65.8055 0.253519 57.7532 14.0097 55.3679 18.3867C51.2403 25.9239 46.6559 34.813 42.7143 45.5949C41.3948 49.2283 40.2784 55.3121 39.94 59.5539C39.6186 63.5422 40.752 68.5613 41.7501 71.2484C43.6109 76.2844 46.3176 78.8024 49.4133 81.1684C55.0804 83.1456 64.8412 80.4586 69.4933 78.2278C61.6609 80.8304 54.3191 78.0927 50.09 73.0904C46.2837 68.5951 45.2349 64.9786 45.4041 58.7258C45.5732 52.7772 48.2461 45.8991 48.6351 44.733C51.3249 36.9086 55.3003 29.9629 57.8547 24.8592C58.6328 23.3213 60.1046 20.6681 61.5763 18.0656C63.1157 15.3617 64.7228 12.7254 65.4671 11.4748C65.7547 10.9847 65.907 10.7481 65.907 10.7481C65.9577 10.6636 66.0423 10.6129 66.11 10.6129C66.1607 9.58205 66.8205 7.8583 66.905 6.25284C67.0573 3.92071 66.313 1.55478 66.2284 0.0676247Z" fill="url(#paint2_radial_9_18)"/>
<path id="Vector_8" d="M84.5659 92.3896C80.6751 95.0766 72.6228 99.1494 63.7754 98.0171C52.4413 96.5469 45.5732 90.2265 41.361 83.5343C38.7727 79.4108 35.6093 70.0654 38.7051 59.5201C41.2933 50.6985 50.1576 44.0739 59.2587 43.5838C67.4125 43.1444 72.8596 46.6933 76.0568 50.0732C77.5793 51.6956 80.8781 56.1909 80.6751 62.1733C80.5228 66.8545 78.9665 70.2344 75.2618 74.1888C72.6397 76.9773 67.8185 78.9545 67.8185 78.9545L68.3429 81.8105L76.0399 76.9773L82.1806 67.5135L83.1449 60.0271L80.6412 51.1717C79.6262 50.3774 69.8315 41.8094 60.2906 42.7051C47.0788 43.9218 40.4813 52.5406 38.925 56.5796C38.0622 57.7456 37.2671 58.3878 37.2671 58.3878C37.2671 58.3878 34.4928 62.0888 34.8142 69.8288C35.1357 77.5518 39.0772 96.0906 48.8719 99.386C58.6497 102.681 62.9972 102.208 67.3956 102.36C71.8108 102.512 80.2352 99.4705 82.9588 97.2905C85.6824 95.1273 85.6147 91.6629 84.5659 92.3896Z" fill="url(#paint3_radial_9_18)"/>
<path id="Vector_9" d="M71.0834 77.4167C66.1438 79.8333 56.9581 83.078 49.4302 81.1514C55.6048 85.0045 60.1553 85.6805 64.2491 85.5622C68.5967 85.4439 71.3203 84.5144 74.3314 83.0104C81.9439 79.2249 85.4456 71.5525 85.9869 65.249C86.7482 56.2078 82.5021 49.0931 76.3614 44.3781C70.1699 39.6294 63.7586 39.2745 59.6647 39.19C54.2853 39.0886 46.8927 41.5897 41.3441 46.7441C35.068 52.3547 29.1811 63.407 29.401 75.7436C29.604 86.8128 36.6413 98.3213 47.3495 104.676C59.0219 107.261 71.7601 101.684 81.1488 94.671C76.7674 97.1891 71.5571 98.5917 66.1269 98.6424C49.5655 98.8114 36.4214 84.9369 36.3875 69.4063C36.3875 67.8008 36.506 63.1873 37.9439 59.0807C40.1092 52.4392 47.2818 44.226 58.599 43.0769C65.8562 42.3333 73.6547 45.4428 77.867 51.5097C81.318 56.343 81.2165 60.8889 81.0473 63.0183C80.8612 65.418 80.1338 68.2909 78.0869 71.3328C75.8877 74.6451 72.8258 76.6055 71.0834 77.4167Z" fill="url(#paint4_radial_9_18)"/>
<path id="Vector_10" d="M99.9769 58.6075C93.1595 42.046 79.4571 22.0708 66.4144 0.321097C66.296 0.101404 66.1607 0.0676048 66.0592 0.101404C64.8919 2.58563 66.1268 8.07797 66.0253 10.6129C66.1607 10.5453 66.2622 10.596 66.3806 10.765C76.7504 26.7012 87.8308 43.6007 93.3118 56.9513C94.8173 60.6185 95.9169 65.1138 95.7985 69.3387C95.4602 81.6753 88.7105 89.8885 81.3856 94.7048C72.183 101.228 59.6139 106.703 47.3325 104.709C52.8135 107.971 59.3433 109.847 66.2283 109.847C86.562 109.847 103.056 93.4712 103.056 73.2932C103.073 68.0712 101.838 63.1535 99.9769 58.6075Z" fill="url(#paint5_radial_9_18)"/>
</g>
</g>
</g>
</g>
</g>
<defs>
<radialGradient id="paint0_radial_9_18" cx="0" cy="0" r="1" gradientUnits="userSpaceOnUse" gradientTransform="translate(78.6023 66.2139) scale(29.6301 48.1542)">
<stop offset="0.1613" stop-color="#F8C954"/>
<stop offset="0.2289" stop-color="#F7C553"/>
<stop offset="0.2901" stop-color="#F3BA4E"/>
<stop offset="0.3489" stop-color="#ECA847"/>
<stop offset="0.4061" stop-color="#E28E3D"/>
<stop offset="0.4622" stop-color="#D56D31"/>
<stop offset="0.5174" stop-color="#C64421"/>
<stop offset="0.5711" stop-color="#B4140F"/>
<stop offset="0.5813" stop-color="#B00A0B"/>
<stop offset="0.7346" stop-color="#820D07"/>
<stop offset="0.9018" stop-color="#530808"/>
<stop offset="1" stop-color="#3C0508"/>
</radialGradient>
<radialGradient id="paint1_radial_9_18" cx="0" cy="0" r="1" gradientUnits="userSpaceOnUse" gradientTransform="translate(62.5313 50.9502) scale(29.1617 48.4699)">
<stop offset="0.1273" stop-color="#F8C954"/>
<stop offset="0.1926" stop-color="#EBA647"/>
<stop offset="0.3363" stop-color="#CA4E25"/>
<stop offset="0.4424" stop-color="#B00A0B"/>
<stop offset="0.5198" stop-color="#A30A0B"/>
<stop offset="0.6634" stop-color="#80090A"/>
<stop offset="0.8558" stop-color="#490709"/>
<stop offset="1" stop-color="#1B0608"/>
</radialGradient>
<radialGradient id="paint2_radial_9_18" cx="0" cy="0" r="1" gradientUnits="userSpaceOnUse" gradientTransform="translate(52.9254 67.292) scale(28.9821 43.1283)">
<stop stop-color="#F77A11"/>
<stop offset="0.0537869" stop-color="#F67310"/>
<stop offset="0.133" stop-color="#F25F0E"/>
<stop offset="0.2274" stop-color="#EB3F0B"/>
<stop offset="0.2909" stop-color="#E62509"/>
<stop offset="0.3382" stop-color="#C92008"/>
<stop offset="0.4331" stop-color="#941806"/>
<stop offset="0.5295" stop-color="#671104"/>
<stop offset="0.6254" stop-color="#420B03"/>
<stop offset="0.7206" stop-color="#250601"/>
<stop offset="0.8152" stop-color="#100301"/>
<stop offset="0.9087" stop-color="#040100"/>
<stop offset="1"/>
</radialGradient>
<radialGradient id="paint3_radial_9_18" cx="0" cy="0" r="1" gradientUnits="userSpaceOnUse" gradientTransform="translate(58.2537 78.8535) rotate(35.9057) scale(30.265 45.6119)">
<stop stop-color="#F8C954"/>
<stop offset="0.2185" stop-color="#E79D43"/>
<stop offset="0.7105" stop-color="#BD2D18"/>
<stop offset="0.8606" stop-color="#B00A0B"/>
</radialGradient>
<radialGradient id="paint4_radial_9_18" cx="0" cy="0" r="1" gradientUnits="userSpaceOnUse" gradientTransform="translate(63.5647 62.8178) rotate(-3.6316) scale(63.3374 58.6227)">
<stop offset="0.0861455" stop-color="#F7C44D"/>
<stop offset="0.2788" stop-color="#F98A1C"/>
<stop offset="0.3173" stop-color="#F7801A"/>
<stop offset="0.3826" stop-color="#F26515"/>
<stop offset="0.4661" stop-color="#EA3A0D"/>
<stop offset="0.503" stop-color="#E62509"/>
<stop offset="0.5911" stop-color="#B51D07"/>
<stop offset="0.7388" stop-color="#681104"/>
<stop offset="0.861" stop-color="#300802"/>
<stop offset="0.9514" stop-color="#0D0201"/>
<stop offset="1"/>
</radialGradient>
<radialGradient id="paint5_radial_9_18" cx="0" cy="0" r="1" gradientUnits="userSpaceOnUse" gradientTransform="translate(67.0431 89.7211) rotate(-70.0635) scale(77.2999 63.5874)">
<stop stop-color="#E62509"/>
<stop offset="0.0410129" stop-color="#C11F08"/>
<stop offset="0.1043" stop-color="#8E1706"/>
<stop offset="0.1688" stop-color="#631004"/>
<stop offset="0.2336" stop-color="#3F0A02"/>
<stop offset="0.2985" stop-color="#230601"/>
<stop offset="0.3638" stop-color="#100301"/>
<stop offset="0.4297" stop-color="#040100"/>
<stop offset="0.497"/>
</radialGradient>
<clipPath id="clip0_9_18">
<rect width="132" height="150" fill="white"/>
</clipPath>
</defs>
</svg>
