<svg width="25" height="25" viewBox="0 0 25 25" fill="none" xmlns="http://www.w3.org/2000/svg">
<g id="Shopping Cart 1">
<path id="Vector" d="M6.25 19.9218H16.5844C16.9534 19.9219 17.3106 19.7913 17.5927 19.553C17.8747 19.3149 18.0632 18.9847 18.125 18.6207L20.8719 2.47493C20.9339 2.11123 21.1225 1.78119 21.4045 1.54326C21.6865 1.30532 22.0435 1.17484 22.4125 1.17493H23.4375" stroke="#7D7D7D" stroke-width="1.5" stroke-linecap="round" stroke-linejoin="round"/>
<path id="Vector_2" d="M8.20312 23.0469C7.98739 23.0469 7.8125 22.872 7.8125 22.6562C7.8125 22.4405 7.98739 22.2656 8.20312 22.2656" stroke="#7D7D7D" stroke-width="1.5"/>
<path id="Vector_3" d="M8.20312 23.0469C8.41886 23.0469 8.59375 22.872 8.59375 22.6562C8.59375 22.4405 8.41886 22.2656 8.20312 22.2656" stroke="#7D7D7D" stroke-width="1.5"/>
<path id="Vector_4" d="M16.0156 23.0469C15.7999 23.0469 15.625 22.872 15.625 22.6562C15.625 22.4405 15.7999 22.2656 16.0156 22.2656" stroke="#7D7D7D" stroke-width="1.5"/>
<path id="Vector_5" d="M16.0156 23.0469C16.2314 23.0469 16.4062 22.872 16.4062 22.6562C16.4062 22.4405 16.2314 22.2656 16.0156 22.2656" stroke="#7D7D7D" stroke-width="1.5"/>
<path id="Vector_6" d="M18.701 15.2345H6.12703C5.43024 15.2344 4.75346 15.0014 4.20424 14.5726C3.65502 14.1438 3.26486 13.5437 3.09578 12.8678L1.58536 6.82612C1.55654 6.7109 1.55437 6.59063 1.57901 6.47444C1.60365 6.35825 1.65447 6.24922 1.72758 6.15562C1.80069 6.06201 1.89418 5.98632 2.00095 5.93428C2.10771 5.88223 2.22493 5.85522 2.3437 5.85529H20.2957" stroke="#7D7D7D" stroke-width="1.5" stroke-linecap="round" stroke-linejoin="round"/>
</g>
</svg>
