<svg width="54" height="64" viewBox="0 0 54 64" fill="none" xmlns="http://www.w3.org/2000/svg">
<rect x="-19" y="-10" width="65" height="65" rx="32.5" fill="#FD8558" fill-opacity="0.1"/>
<path d="M40 64V58H42V52H44V46L44.001 40.442C50.272 36.359 54 29.507 54 22C54 9.869 44.131 0 32 0C19.869 0 10 9.869 10 22C10 29.459 13.817 36.514 20 40.55V44V46V52H22V58H24V64H40ZM38 62H26V58H38V62ZM21.524 39.148C15.649 35.53 12 28.96 12 22C12 10.972 20.972 2 32 2C43.028 2 52 10.972 52 22C52 28.995 48.439 35.366 42.477 39.041L42 39.334V44H37.161L39.989 25.148L38.01 24.851L37.902 25.573L35.093 27.679L32 24.586L28.906 27.68L26.097 25.574L25.989 24.852L24.01 25.149L26.839 44H22V39.441L21.524 39.148ZM28.861 44L26.52 28.39L29.094 30.321L32 27.414L34.906 30.32L37.48 28.389L35.139 44H28.861ZM22 46H42V50H22V46ZM24 52H40V56H24V52Z" fill="#FD8558"/>
</svg>
