<svg width="64" height="64" viewBox="0 0 64 64" fill="none" xmlns="http://www.w3.org/2000/svg">
<rect x="-19" y="-10" width="65" height="65" rx="32.5" fill="#3A0F73" fill-opacity="0.1"/>
<path d="M32 0C14.355 0 0 14.355 0 32C0 49.645 14.355 64 32 64C49.645 64 64 49.645 64 32C64 14.355 49.645 0 32 0ZM61.167 25H46.365C44.799 21.799 42.201 19.201 39 17.635V2.833C49.928 5.456 58.544 14.072 61.167 25ZM62 32C62 33.704 61.85 35.373 61.575 37H47.188C47.708 35.425 48 33.747 48 32C48 30.253 47.708 28.575 47.188 27H61.575C61.85 28.627 62 30.296 62 32ZM32 46C24.28 46 18 39.72 18 32C18 24.28 24.28 18 32 18C39.72 18 46 24.28 46 32C46 39.72 39.72 46 32 46ZM16.812 37H2.425C2.15 35.373 2 33.704 2 32C2 30.296 2.15 28.627 2.425 27H16.812C16.292 28.575 16 30.253 16 32C16 33.747 16.292 35.425 16.812 37ZM37 2.425V16.812C35.425 16.291 33.747 16 32 16C30.253 16 28.575 16.291 27 16.812V2.425C28.627 2.15 30.296 2 32 2C33.704 2 35.373 2.15 37 2.425ZM25 2.833V17.635C21.799 19.201 19.201 21.799 17.635 25H2.833C5.456 14.072 14.072 5.456 25 2.833ZM2.833 39H17.635C19.201 42.201 21.799 44.799 25 46.365V61.167C14.072 58.544 5.456 49.928 2.833 39ZM27 61.575V47.188C28.575 47.709 30.253 48 32 48C33.747 48 35.425 47.709 37 47.188V61.575C35.373 61.85 33.704 62 32 62C30.296 62 28.627 61.85 27 61.575ZM39 61.167V46.365C42.201 44.799 44.799 42.201 46.365 39H61.167C58.544 49.928 49.928 58.544 39 61.167Z" fill="#3A0F73"/>
</svg>
